<?xml version="1.0" encoding="UTF-8" standalone="no"?>
<!DOCTYPE svg PUBLIC "-//W3C//DTD SVG 1.1//EN" "http://www.w3.org/Graphics/SVG/1.1/DTD/svg11.dtd">
<svg width="100%" height="100%" viewBox="0 0 694 420" version="1.1" xmlns="http://www.w3.org/2000/svg" xmlns:xlink="http://www.w3.org/1999/xlink" xml:space="preserve" xmlns:serif="http://www.serif.com/" style="fill-rule:evenodd;clip-rule:evenodd;stroke-linejoin:round;stroke-miterlimit:1.41421;">
    <g id="Layer_2">
        <path d="M148.718,221.207L157.388,246.668C162.079,260.436 166.267,271.447 166.813,271.447C166.822,271.447 166.83,271.443 166.837,271.437C167.437,270.907 184.407,221.626 184.407,221.626L217.297,221.626L177.617,337.245L154.757,337.245C154.757,337.245 130.357,266.774 130.457,266.506L104.987,336.357L82.357,336.357L43.177,221.207L75.907,221.228C75.907,221.228 93.836,272.049 94.075,272.049C94.076,272.049 94.076,272.048 94.077,272.047L111.967,221.206L148.718,221.206M32.003,213.2L35.604,223.784L74.784,338.933L76.629,344.357L110.586,344.357L112.504,339.097L130.189,290.597C131.713,295.031 133.36,299.81 135.007,304.585C141.096,322.24 147.198,339.862 147.198,339.862L149.062,345.245L183.33,345.245L185.184,339.842L224.864,224.224L228.501,213.626L217.297,213.626L184.407,213.626L178.701,213.626L176.843,219.022C173.869,227.657 169.922,239.053 166.547,248.698C166.038,247.235 165.508,245.697 164.96,244.087L156.291,218.627L154.445,213.206L148.718,213.206L111.968,213.206L106.302,213.206L104.421,218.551L93.968,248.257C90.515,238.551 86.512,227.24 83.452,218.566L81.57,213.232L75.913,213.228L43.183,213.207L32.003,213.2Z" style="fill:rgb(255,232,31);fill-rule:nonzero;"/>
        <path d="M655.258,220.758L655.183,251.063C655.183,251.063 622.54,250.954 605.944,250.954C600.423,250.954 596.678,250.967 596.5,250.999C593.64,251.52 591.819,257.601 592.63,260.27C593.029,261.62 596.021,266.03 599.26,270.08C602.489,274.131 607.8,280.761 611.04,284.809C619.359,295.19 620.5,297.239 621.269,303.2C622.519,312.881 617.94,323.36 609.44,330.27C600.922,337.2 601.295,337.249 538.057,337.249C537.141,337.249 536.222,337.249 535.28,337.249C496.82,337.239 476.48,336.92 473.519,336.26C468.259,335.07 459.879,328.23 437.729,306.98C429.762,299.344 422.42,292.658 422.043,292.656C422.033,292.656 422.028,292.662 422.028,292.672L421.767,337.251L385.868,337.092L385.647,222.112L465.708,222.112C489.838,222.983 506.168,247.022 502.918,262.352C502.178,265.831 500.298,270.873 498.737,273.552C495.527,279.052 487.357,286.112 480.726,289.143C478.277,290.251 476.277,291.541 476.277,292.001C476.277,293.711 484.338,301.65 487.357,302.911C489.936,303.99 497.447,304.23 530.567,304.23C534.449,304.23 537.975,304.232 541.175,304.232C574.468,304.232 572.793,303.992 575.365,298.491C577.166,294.661 575.796,292.371 563.126,278.101C547.075,262.13 548.756,254.48 548.646,248.83C548.417,242.06 553.748,220.761 581.458,220.761L655.258,220.758M440.188,273.878C455.558,273.878 458.678,273.639 461.949,272.218C472.989,267.418 473.579,253.239 462.989,246.947C460.67,245.566 457.689,245.338 441.029,245.247L421.75,245.146C421.909,245.296 421.689,272.716 421.689,272.716C421.689,272.716 426.518,273.878 440.188,273.878M663.277,212.758L655.256,212.758L581.456,212.758C565.424,212.758 555.941,219.086 550.81,224.395C542.463,233.028 540.497,243.899 540.648,249.024C540.656,249.451 540.651,249.889 540.646,250.346C540.573,258.675 541.8,268.104 557.305,283.592C560.37,287.044 565.498,292.831 567.436,295.707C563.198,296.228 552.456,296.228 541.174,296.228L536.382,296.228L530.566,296.226C510.662,296.226 493.878,296.169 490.438,295.49C489.957,295.176 489.282,294.636 488.54,293.992C495.417,289.757 502.37,283.193 505.644,277.58C507.631,274.167 509.822,268.337 510.742,264.012C512.782,254.387 509.417,242.776 501.741,232.944C492.785,221.473 479.756,214.61 465.995,214.114L465.85,214.108L465.705,214.108L430.915,214.108L385.644,214.108L377.628,214.108L377.644,222.125L377.865,337.104L377.881,345.053L385.83,345.088L421.729,345.247L429.717,345.282L429.764,337.294L429.919,310.588C430.652,311.284 431.41,312.007 432.188,312.753C456.415,335.993 464.547,342.432 471.75,344.061C473.729,344.502 477.003,345.233 535.273,345.249L538.052,345.249C569.598,345.249 585.432,345.249 594.851,344.339C605.64,343.296 609.11,340.849 614.312,336.614L614.485,336.473C625.17,327.786 630.808,314.643 629.2,302.173C628.152,294.063 626.006,290.694 617.278,279.805L614.684,276.565C611.644,272.766 607.971,268.178 605.509,265.09C603.523,262.606 601.963,260.401 601.022,258.957C602.258,258.954 603.863,258.952 605.94,258.952C622.335,258.952 654.827,259.06 655.153,259.062L663.161,259.088L663.181,251.08L663.256,220.774L663.277,212.758ZM429.739,265.586C429.752,263.565 429.764,261.299 429.777,259.029C429.787,257.029 429.796,255.025 429.799,253.189L440.986,253.247C447.415,253.282 457.089,253.335 458.975,253.87C461.382,255.331 462.725,257.59 462.579,259.93C462.499,261.194 461.897,263.518 458.758,264.881C457.008,265.641 454.218,265.878 440.188,265.878C435.738,265.878 432.305,265.749 429.739,265.586Z" style="fill:rgb(255,232,31);fill-rule:nonzero;"/>
        <path d="M312.908,220.287L353.198,336.207L320.368,336.357L314.918,318.947L256.218,318.476L251.038,335.907L218.538,335.566L258.318,220.337L312.908,220.287M286.507,237.283C286.424,237.616 281.363,251.502 276.285,265.387C271.165,279.387 266.028,293.387 265.957,293.496C265.957,293.497 265.956,293.497 265.957,293.497L265.957,293.496C266.093,293.456 284.273,293.416 295.925,293.416C301.378,293.416 305.4,293.425 305.475,293.445C305.476,293.449 305.476,293.45 305.476,293.45C305.476,293.45 305.476,293.449 305.476,293.447L305.475,293.445C305.271,292.916 286.566,237.959 286.507,237.283C286.508,237.279 286.508,237.277 286.508,237.277C286.507,237.277 286.507,237.279 286.507,237.283M318.595,212.282L312.902,212.287L258.312,212.338L252.616,212.343L250.757,217.729L210.977,332.958L207.354,343.452L218.456,343.567L250.956,343.908L256.989,343.971L258.708,338.189L262.174,326.527L309.028,326.902L312.736,338.75L314.501,344.388L320.408,344.362L353.237,344.212L364.432,344.16L360.756,333.586L320.466,217.666L318.595,212.282ZM277.472,285.424C278.987,281.295 281.028,275.714 283.799,268.135C284.668,265.759 285.463,263.584 286.192,261.59C286.855,263.546 287.577,265.674 288.361,267.988C289.007,269.894 291.846,278.258 294.281,285.416C287.041,285.416 281.591,285.417 277.472,285.424Z" style="fill:rgb(255,232,31);fill-rule:nonzero;"/>
        <path d="M326.488,81.928L326.488,110.528L269.208,110.528L269.208,197.998L235.058,197.998L235.058,110.458L168.198,110.648C160.138,110.648 159.058,117.068 159.058,119.528C159.058,122.548 161.028,125.568 171.848,139.268C178.868,148.168 185.318,157.048 186.168,158.988C190.808,169.668 184.808,186.308 173.878,193.068C166.088,197.881 167.419,197.999 109.57,197.999C106.596,197.999 103.474,197.999 100.178,197.999L37.908,197.999L37.908,165.869L135.808,165.869L138.698,163.859C140.648,162.499 141.778,160.629 142.208,158.069C142.808,154.389 142.498,153.909 130.408,140.289C116.118,124.189 114.608,121.249 115.348,110.969C116.188,99.239 126.648,82.199 144.928,82.199L326.488,81.928M334.488,73.916L326.475,73.928L144.915,74.198C134.457,74.198 124.744,78.716 117.573,86.92C111.759,93.572 107.943,102.349 107.367,110.397C106.394,123.908 109.504,128.79 124.423,145.599C128.753,150.476 132.87,155.115 134.244,157.085C134.222,157.164 134.202,157.215 134.19,157.244C134.175,157.256 134.152,157.274 134.12,157.296L133.298,157.868L37.908,157.868L29.908,157.868L29.908,205.998L109.57,205.998C138.092,205.998 152.17,205.971 160.464,205.363C169.954,204.668 172.982,203.04 177.518,200.223L178.084,199.872C192.346,191.051 199.696,170.045 193.506,155.798C191.596,151.44 179.503,136.052 178.13,134.312C174.334,129.505 168.068,121.572 167.076,119.276C167.1,119.083 167.147,118.883 167.197,118.744C167.362,118.702 167.678,118.646 168.198,118.646L227.058,118.479L227.058,205.996L277.208,205.996L277.208,197.996L277.208,118.526L334.488,118.526L334.488,110.526L334.488,81.926L334.488,73.916Z" style="fill:rgb(255,232,31);fill-rule:nonzero;"/>
        <path d="M419.548,82.857L459.728,199.077L426.958,198.897L421.638,181.487L363.199,181.227L357.978,197.997L324.609,197.997L364.348,82.857L419.548,82.857M372.737,156.478L412.538,156.428C412.539,156.428 412.539,156.429 412.539,156.429C412.675,156.429 393.197,99.228 393.067,99.188C392.925,99.183 372.288,156.478 372.737,156.478M425.247,74.857L419.548,74.857L364.348,74.857L358.647,74.857L356.787,80.247L317.047,195.388L313.385,205.998L363.869,205.998L365.619,200.375L369.08,189.254L415.712,189.461L419.311,201.235L421.032,206.864L426.919,206.897L459.689,207.077L470.986,207.139L467.295,196.463L427.115,80.243L425.247,74.857ZM383.851,148.464C386.319,141.437 389.755,131.807 392.865,123.152C395.813,131.796 399.074,141.397 401.453,148.442L383.851,148.464Z" style="fill:rgb(255,232,31);fill-rule:nonzero;"/>
        <path d="M532.396,82.857C558.317,82.857 576.306,83.227 579.766,83.827C587.766,85.217 594.996,89.487 600.416,96.047C606.086,102.907 607.386,106.187 608.126,115.587C609.187,128.857 602.876,140.307 590.426,147.737C586.796,149.907 583.067,152.017 582.136,152.437C580.706,153.087 580.897,153.707 583.456,156.707C585.105,158.637 587.966,161.387 589.806,162.817L593.166,165.427L655.246,166.317L655.855,197.997L617.794,197.997C588.355,197.997 578.934,197.727 576.174,196.797C572.044,195.397 562.105,186.977 541.903,167.757L527.483,154.037L527.635,197.997L490.592,197.997L490.592,82.857L532.396,82.857M526.938,134.627L546.609,134.627C565.75,134.627 566.348,134.567 569.079,132.517C573.96,128.857 575.688,125.087 575.17,119.297C574.64,113.327 572.34,110.217 566.569,107.717C563.319,106.297 560.188,106.067 544.848,106.067L526.938,106.067L526.938,134.627M532.396,74.857L490.596,74.857L482.596,74.857L482.596,205.997L535.667,205.997L535.639,197.969L535.551,172.753L536.391,173.552C561.377,197.325 568.747,202.725 573.609,204.373C577.342,205.632 583.591,205.997 617.797,205.997L664.012,205.997L663.856,197.843L663.247,166.163L663.099,158.429L655.365,158.318L595.963,157.467L594.718,156.5C594.322,156.191 593.842,155.783 593.329,155.321C593.775,155.057 594.183,154.814 594.536,154.604C609.539,145.651 617.402,131.197 616.105,114.951C615.242,103.992 613.285,99.055 606.585,90.951C600.001,82.982 590.964,77.653 581.138,75.946C575.678,74.999 548.257,74.857 532.396,74.857ZM534.938,114.067L544.848,114.067C558.875,114.067 561.654,114.3 563.366,115.048C566.616,116.456 566.946,117.139 567.201,120.005C567.457,122.853 567.104,123.999 564.279,126.117C564.186,126.186 564.115,126.24 564.056,126.283C562.191,126.628 555.27,126.628 546.609,126.628L534.939,126.628L534.938,114.067Z" style="fill:rgb(255,232,31);fill-rule:nonzero;"/>
    </g>
</svg>
